PathFileType	4	(X/Y/Z)	RBDS05\RBDS05runT45.trc
DataRate	CameraRate	NumFrames	NumMarkers	Units	OrigDataRate	OrigDataStartFrame	OrigNumFrames
150.000000	150.000000	5	32	mm	150.000000	1687	4500
Frame#	Time	L.ASIS			L.Heel.Bottom			L.Heel.Lateral			L.Heel.Top			L.Iliac.Crest			L.MT1			L.MT5			L.PSIS			L.Shank.Bottom.Lateral			L.Shank.Bottom.Medial			L.Shank.Top.Lateral			L.Shank.Top.Medial			L.Thigh.Bottom.Lateral			L.Thigh.Bottom.Medial			L.Thigh.Top.Lateral			L.Thigh.Top.Medial			R.ASIS			R.ASY			R.Heel.Bottom			R.Heel.Lateral			R.Heel.Top			R.Iliac.Crest			R.MT5			R.PSIS			R.Shank.Bottom.Lateral			R.Shank.Bottom.Medial			R.Shank.Top.Lateral			R.Shank.Top.Medial			R.Thigh.Bottom.Lateral			R.Thigh.Bottom.Medial			R.Thigh.Top.Lateral			R.Thigh.Top.Medial			
		X1	Y1	Z1	X2	Y2	Z2	X3	Y3	Z3	X4	Y4	Z4	X5	Y5	Z5	X6	Y6	Z6	X7	Y7	Z7	X8	Y8	Z8	X9	Y9	Z9	X10	Y10	Z10	X11	Y11	Z11	X12	Y12	Z12	X13	Y13	Z13	X14	Y14	Z14	X15	Y15	Z15	X16	Y16	Z16	X17	Y17	Z17	X18	Y18	Z18	X19	Y19	Z19	X20	Y20	Z20	X21	Y21	Z21	X22	Y22	Z22	X23	Y23	Z23	X24	Y24	Z24	X25	Y25	Z25	X26	Y26	Z26	X27	Y27	Z27	X28	Y28	Z28	X29	Y29	Z29	X30	Y30	Z30	X31	Y31	Z31	X32	Y32	Z32	

1688	11.24666666666667	2302.208425832245	884.7087364721518	918.2239009389901	1758.466915201857	557.5629041911	1029.915375362275	1757.500987282378	525.2895446485018	984.0507391367543	1800.449767054592	532.3445390114666	1022.350384725787	2264.254511690748	956.1678012902033	878.3978165177193	1715.523400487272	355.2066846346544	1054.515945977199	1698.387408729802	391.937129014706	958.0467325939054	2146.653386779818	940.6289810727178	971.7859852786912	1857.908144091212	466.0716192290168	941.3178179271454	1867.415254331421	504.7758320716758	973.0966736699893	1934.13229009309	466.6921630922792	912.9321086846572	1947.878145556209	505.6246278238449	945.7629762938147	2179.535082075193	538.9366584355148	848.7440162335716	2120.088686772157	535.3301552948797	891.0037231747735	2171.837939040516	648.955339153126	852.119648732253	2118.153995581345	646.0171985460651	895.0706259196127	2286.499266863863	916.0044930528699	1140.286620467555	-7940990410.610014	-586459553.3560121	1415293769.171135	2194.880397384693	28.67234381234279	1047.463719663265	2224.099339486454	42.14502287885326	1084.533110093158	2207.338103283365	75.53130571920873	1045.687374127773	2225.29264506446	953.2379241946668	1171.281507152979	2382.276771225815	34.65754767114353	1109.023044840312	2139.765624481295	949.6780159365711	1059.634264311115	2286.804161170907	162.5234366084289	1105.204624912014	2243.528573994114	175.0265675938251	1074.134300542859	2293.282415252225	241.2743512824447	1124.756351636359	2251.465512948946	252.9544302203941	1092.102421720417	2335.295626429678	554.500393298682	1166.267310334273	2276.441618784445	525.785845215745	1133.417764993726	2278.937861890495	648.0081324429079	1182.871411114111	2221.923241349175	619.9983467011855	1152.781154142095	
1689	11.25333333333333	2300.464883973218	882.1460006911141	918.8864177091044	1773.41528359761	554.2448589926657	1023.288680636885	1774.337980775164	520.6622530896094	978.4507764409304	1816.052149025625	529.779724592117	1017.606056352389	2261.289387136189	952.3336094637356	877.5370384199534	1734.386222570887	351.9891630951053	1053.503761009131	1718.91555278281	385.2073891196287	955.4166547498328	2144.372343688677	937.4380049019032	970.1287246840488	1876.471048364995	461.8564608766611	938.8548394243785	1885.664327459932	501.2732857832899	969.8066588989072	1953.03200640582	461.8018889482951	911.1974311299555	1966.52146791957	501.3857483243336	943.3698810268868	2193.326740430487	534.4936896256216	849.1940626325114	2133.144601616445	528.252444925492	889.984764785034	2180.598740184234	643.9868935424082	852.0521739313697	2126.03022927079	638.6774581975915	893.5362409924347	2283.609472331429	914.8252422539335	1141.354724546665	-7967460640.17074	-588413685.4276752	1420011326.925065	2165.300078182288	29.59419578134281	1047.705585829544	2194.474704762072	43.09969436284434	1084.814104360444	2177.831039493155	76.44424123016718	1046.007781882921	2220.851123483595	950.9709562450892	1171.10745782252	2352.574402771757	35.33656456294547	1108.949258454889	2137.006820143764	947.4134641017087	1057.76058957811	2263.289175519456	162.6151887651907	1105.765557317424	2220.217290956652	177.5357077716174	1075.350110179485	2274.162638246573	240.8931354066704	1125.621212320068	2232.479332376635	254.9230654278774	1093.585436373108	2328.184770207531	551.1566823890458	1167.945503471484	2269.052963926811	523.337883463213	1134.774361841468	2273.389162324708	645.6146924266919	1183.987287144522	2215.871083463769	618.3857930416892	1153.985022908929	
1690	11.26	2298.586483192969	880.3222725856795	919.3619794433341	1787.802278087534	549.3687065776254	1016.663425248412	1791.04141864533	514.6704634132278	972.8239263120149	1831.226692224355	525.9762540978357	1012.919252646599	2257.617401380208	949.5630058977429	876.7053054872014	1754.093146881464	346.952857659186	1051.903788826427	1740.410720539775	376.8675496297328	952.2994347455914	2142.175825521329	935.1268154908453	968.7629282078884	1895.303063645888	457.1106942961301	936.4734728163079	1903.859225742913	497.2054713272356	966.7264643397028	1972.193247327265	457.0033924582106	909.7088956054529	1985.093986610395	497.2546358004494	941.3563802510583	2207.645806275375	531.4931592331568	849.9985660391125	2146.993254489613	522.4811939286701	889.4874654239525	2189.641288004683	640.2086601586782	852.2331187198987	2134.465036840731	632.3679829650057	892.3769449612776	2281.002072003652	913.9218447436542	1142.221542613747	-7993989627.706256	-590372153.6013575	1424739356.32621	2135.633199696568	30.134591236467	1048.012630639072	2164.673575533175	43.74396899733193	1085.213092608982	2147.939254994472	76.99019524193579	1046.529657381584	2216.896884042338	949.448647940358	1170.871272457097	2322.525545592353	36.45637338270222	1108.958722111229	2134.632455314171	945.8700637021403	1056.240595635064	2238.478383211547	162.5576123087165	1106.43322915877	2195.744525376962	179.6649026086644	1076.595639510014	2253.347216726895	240.1707862636033	1126.496124775302	2211.936896202873	256.3242352638446	1095.012538311299	2319.225857616125	547.4028025222776	1169.448515793137	2259.548424628203	520.8820882362129	1136.14903083475	2266.688290098409	643.1339179360596	1184.966722382633	2208.465664985854	617.0990281277877	1155.17854651941	
1691	11.26666666666667	2296.676353908917	879.2969679522824	919.6646752466869	1801.615756589348	542.8636851852289	1010.380800513444	1807.550092602934	507.3919946730859	967.4347972154999	1845.92481790625	520.8661623734123	1008.547977768715	2253.403424508796	947.9289325408652	875.9491142378234	1774.56972667064	340.0695941214381	1049.602298750592	1762.770396280142	367.1795477652384	948.6844494230644	2140.151763385248	933.7599874671494	967.7592495170906	1914.241436633676	451.9352474836361	934.2847276243415	1921.849786702932	492.616852391215	964.0311430731365	1991.433573778375	452.4433800555166	908.5546630684245	2003.420003638643	493.319978242055	939.862986561239	2222.306625576747	530.0397841178318	851.1321420199395	2161.477096533349	518.1649572801701	889.5351186223471	2198.855559467325	637.709491903901	852.6539518005216	2143.36576029973	627.2224144906498	891.6257170338137	2278.756449364742	913.2420088797747	1142.886023002845	-8020577438.358981	-592334962.682539	1429477868.983749	2105.784920351188	30.39123386890071	1048.336225683822	2134.648807718041	44.1203859172759	1085.673839408055	2117.710245215671	77.27718066818238	1047.166009330736	2213.661997510108	948.6439298825862	1170.618103487462	2292.173958310373	37.68443093935963	1109.035342643584	2132.718560228408	945.0904655801643	1055.163978507633	2212.469575381066	162.3539847375036	1107.12699068253	2170.185537017201	181.4081801785545	1077.771187380319	2230.911093459209	239.1717080353429	1127.31319805125	2189.887284862915	257.2125682037357	1096.303553682858	2308.466503924263	543.402570965527	1170.707582233892	2247.99336038553	518.566762548473	1137.497685121044	2258.85312822285	640.6752965991284	1185.761072051661	2199.756738622162	616.2342462139113	1156.315728901058	
1692	11.27333333333333	2294.838350910375	879.108558945793	919.8244845907259	1814.896349650526	534.6672790443056	1004.735850362849	1823.831058838459	498.8956316518392	962.5132876608368	1860.144841781871	514.3874969892997	1004.711815282149	2248.88550250351	947.4368485522758	875.3065403410033	1795.786443294842	331.3588249648544	1046.526478097379	1785.902595013132	356.4099684735599	944.5855792774806	2138.375674759885	933.3615622126823	967.1494279027379	1933.141159572019	446.4102258955611	932.3781801321467	1939.509120916416	487.5344539415921	961.8596517224702	2010.582205131074	448.2270741455219	907.8006312628007	2021.339930568225	489.628915303755	938.9935390073042	2237.101079316372	530.1914579933859	852.5629086889811	2176.395798749099	515.4157860540207	890.1247719461685	2208.125188140402	636.542329724259	853.2970333619453	2152.614397825736	623.3494191873536	891.29386357876	2276.931275589767	912.7476172373584	1143.359945474629	-8047224137.271333	-594302117.4766999	1434226876.506861	2075.690656217821	30.53634649156756	1048.633630711606	2104.382217837934	44.34655598156247	1086.141974605717	2087.217035353245	77.47855730054276	1047.836961525996	2211.342262555542	948.5050277685841	1170.388125698657	2261.559840792294	38.7825847683037	1109.146096595052	2131.31588947966	945.0922940183908	1054.576482031524	2185.426714273502	162.1084852208164	1107.780194386505	2143.678744692445	182.8681868395519	1078.79619838353	2207.017737788862	238.0618615678345	1128.021209388846	2166.464489753964	257.7520421835599	1097.397571363859	2296.04099711596	539.3788622502192	1171.676890133014	2234.565195452549	516.5858139487821	1138.774845509071	2249.959046656187	638.385027510367	1186.342667498123	2189.868342033433	615.9089451062687	1157.353080694796	
